<svg width="56" height="56" viewBox="0 0 56 56" fill="none" xmlns="http://www.w3.org/2000/svg">
<g clip-path="url(#clip0_25_35)">
<path d="M54.3265 42.1064C51.3172 47.1205 47.1205 51.3172 42.1064 54.3265C41.5373 54.6676 40.8637 54.7908 40.2106 54.6732C39.5575 54.5558 38.969 54.2056 38.5544 53.6876L29.6821 42.5966C28.2697 40.8309 27.5581 38.6063 27.6834 36.3488C27.8084 34.0914 28.7616 31.9591 30.3604 30.3603C31.9592 28.7615 34.0914 27.8084 36.3489 27.6833C38.6064 27.558 40.831 28.2697 42.5966 29.682L53.6877 38.5543C54.2057 38.969 54.5559 39.5574 54.6733 40.2105C54.7909 40.8636 54.6677 41.5373 54.3265 42.1064Z" stroke="#636678" stroke-linecap="round" stroke-linejoin="round"/>
<path d="M25.7441 25.7442L1.28333 1.28333" stroke="#636678" stroke-linecap="round" stroke-linejoin="round"/>
<path d="M28.7156 32.5932L25.7441 29.6263C25.4896 29.372 25.2877 29.0698 25.1498 28.7376C25.0122 28.4051 24.9412 28.0488 24.9412 27.6887C24.9412 27.3289 25.0122 26.9726 25.1498 26.6401C25.2877 26.3076 25.4896 26.0057 25.7441 25.7511C25.9987 25.4966 26.3006 25.2947 26.6331 25.1571C26.9656 25.0192 27.3219 24.9482 27.6817 24.9482C28.0418 24.9482 28.3981 25.0192 28.7306 25.1571C29.0628 25.2947 29.365 25.4966 29.6193 25.7511L32.5929 28.7226" stroke="#636678" stroke-linecap="round" stroke-linejoin="round"/>
<path d="M46.9551 50.8324L38.1129 41.9902" stroke="#636678" stroke-linecap="round" stroke-linejoin="round"/>
<path d="M50.8324 46.9551L41.9904 38.1129" stroke="#636678" stroke-linecap="round" stroke-linejoin="round"/>
<path d="M7.09131 25.6769H11.7377" stroke="#636678" stroke-linecap="round" stroke-linejoin="round"/>
<path d="M9.41449 23.3536V28" stroke="#636678" stroke-linecap="round" stroke-linejoin="round"/>
<path d="M25.6769 4.76807H30.3233" stroke="#636678" stroke-linecap="round" stroke-linejoin="round"/>
<path d="M28 2.44495V7.09134" stroke="#636678" stroke-linecap="round" stroke-linejoin="round"/>
<path d="M18.7073 51.2321H23.3536" stroke="#636678" stroke-linecap="round" stroke-linejoin="round"/>
<path d="M21.0305 48.9088V53.5552" stroke="#636678" stroke-linecap="round" stroke-linejoin="round"/>
<path d="M37.293 15.2225H46.5857" stroke="#636678" stroke-linecap="round" stroke-linejoin="round"/>
<path d="M41.9393 10.576V19.8688" stroke="#636678" stroke-linecap="round" stroke-linejoin="round"/>
<path d="M49.4895 3.60655C49.1689 3.60655 48.9088 3.34652 48.9088 3.02574C48.9088 2.70497 49.1689 2.44495 49.4895 2.44495" stroke="#636678"/>
<path d="M49.4896 3.60655C49.8104 3.60655 50.0703 3.34652 50.0703 3.02574C50.0703 2.70497 49.8104 2.44495 49.4896 2.44495" stroke="#636678"/>
<path d="M16.9649 39.616C16.6441 39.616 16.3841 39.3561 16.3841 39.0352C16.3841 38.7144 16.6441 38.4545 16.9649 38.4545" stroke="#636678"/>
<path d="M16.9648 39.616C17.2856 39.616 17.5457 39.3561 17.5457 39.0352C17.5457 38.7144 17.2856 38.4545 16.9648 38.4545" stroke="#636678"/>
<path d="M6.51054 48.9087C6.18978 48.9087 5.92975 48.6488 5.92975 48.328C5.92975 48.0071 6.18978 47.7472 6.51054 47.7472" stroke="black"/>
<path d="M6.51056 48.9087C6.83132 48.9087 7.09135 48.6488 7.09135 48.328C7.09135 48.0071 6.83132 47.7472 6.51056 47.7472" stroke="black"/>
</g>
<defs>
<clipPath id="clip0_25_35">
<rect width="56" height="56" fill="white"/>
</clipPath>
</defs>
</svg>
