<svg width="26" height="28" viewBox="0 0 26 28" fill="none" xmlns="http://www.w3.org/2000/svg">
<path d="M1 11.2857L13 1L25 11.2857" stroke="white" stroke-width="2" stroke-linecap="round" stroke-linejoin="round"/>
<path d="M13 6.14282L3.14858 14.5657C2.88961 14.8018 2.73366 15.1301 2.71429 15.48V25.5943C2.71429 25.8974 2.8347 26.188 3.04903 26.4024C3.26336 26.6167 3.55405 26.7371 3.85715 26.7371H9.85715V18.7371C9.85715 18.5886 9.91615 18.4461 10.0212 18.3411C10.1262 18.2361 10.2686 18.1771 10.4172 18.1771H15.5829C15.7314 18.1771 15.8738 18.2361 15.9788 18.3411C16.0839 18.4461 16.1429 18.5886 16.1429 18.7371V26.7371H22.1429C22.446 26.7371 22.7367 26.6167 22.951 26.4024C23.1653 26.188 23.2857 25.8974 23.2857 25.5943V15.48C23.2664 15.1301 23.1104 14.8018 22.8514 14.5657L13 6.14282Z" stroke="white" stroke-width="2" stroke-linecap="round" stroke-linejoin="round"/>
</svg>
